PathFileType	3	(X/Y/Z)	F:\ViconData\AntennenMessung\Messung1\Session1\ID16.trc
DataRate	CameraRate	NumFrames	NumMarkers	Units	OrigDataRate	OrigDataStartFrame	OrigNumFrames
120.0	120.0	4	70	mm	120.0	451	900	
Frame#	Time	Ashort			Along			Atop			A4			Bshort			Blong			Btop			B4			Cshort			Clong			Ctop			C4			Dshort			Dlong			Dtop			D4			Eshort			Elong			Etop			E4			Fshort			Flong			Ftop			F4			Gshort			Glong			Gtop			G4			Hshort			Hlong			Htop			H4			I1			I2			I3			I4			I5			WandAshort			WandAlong			WandAtop			WandA4			WandA15			WandBshort			WandB4			WandB5			WandBtop			WandBlong			WandCshort			WandClong			WandCtop			WandC4			WandC5			Acenter			Aantenna			Bcenter			Bantenna			Ccenter			Cantenna			Dcenter			Dantenna			Ecenter			Eantenna			Fcenter			Fantenna			Gcenter			Gantenna			Hcenter			Hantenna			Icenter			Iantenna			
		X1	Y1	Z1	X2	Y2	Z2	X3	Y3	Z3	X4	Y4	Z4	X5	Y5	Z5	X6	Y6	Z6	X7	Y7	Z7	X8	Y8	Z8	X9	Y9	Z9	X10	Y10	Z10	X11	Y11	Z11	X12	Y12	Z12	X13	Y13	Z13	X14	Y14	Z14	X15	Y15	Z15	X16	Y16	Z16	X17	Y17	Z17	X18	Y18	Z18	X19	Y19	Z19	X20	Y20	Z20	X21	Y21	Z21	X22	Y22	Z22	X23	Y23	Z23	X24	Y24	Z24	X25	Y25	Z25	X26	Y26	Z26	X27	Y27	Z27	X28	Y28	Z28	X29	Y29	Z29	X30	Y30	Z30	X31	Y31	Z31	X32	Y32	Z32	X33	Y33	Z33	X34	Y34	Z34	X35	Y35	Z35	X36	Y36	Z36	X37	Y37	Z37	X38	Y38	Z38	X39	Y39	Z39	X40	Y40	Z40	X41	Y41	Z41	X42	Y42	Z42	X43	Y43	Z43	X44	Y44	Z44	X45	Y45	Z45	X46	Y46	Z46	X47	Y47	Z47	X48	Y48	Z48	X49	Y49	Z49	X50	Y50	Z50	X51	Y51	Z51	X52	Y52	Z52	X53	Y53	Z53	X54	Y54	Z54	X55	Y55	Z55	X56	Y56	Z56	X57	Y57	Z57	X58	Y58	Z58	X59	Y59	Z59	X60	Y60	Z60	X61	Y61	Z61	X62	Y62	Z62	X63	Y63	Z63	X64	Y64	Z64	X65	Y65	Z65	X66	Y66	Z66	X67	Y67	Z67	X68	Y68	Z68	X69	Y69	Z69	X70	Y70	Z70	
451	3.75	-1038.1927	214.57324	-1644.1816	-1109.3842	204.10176	-1599.2843	-1063.6064	172.87527	-1625.9893	-1054.1761	262.21216	-1634.921	-1352.7313	235.23576	1003.6092	-1281.3921	227.17374	1052.48	-1322.8325	193.77524	1021.0239	-1284.5236	287.95538	1052.7399	813.89142	187.72603	1209.428	892.15771	178.49876	1179.2849	844.35938	145.66159	1198.2229	860.73926	292.698	1167.8844	1115.7567	209.92438	-1401.759	1056.147	194.0594	-1460.1929	1095.1021	162.55406	-1423.8708	1069.8231	238.80597	-1425.7867	-1204.5557	1685.9548	-1563.183	-1129.1173	1688.3406	-1606.213	-1173.1561	1724.4352	-1581.9303	-1134.0581	1580.995	-1603.834	-1239.6726	1699.2247	1119.5015	-1309.1458	1698.468	1071.8035	-1270.392	1736.245	1096.8497	-1245.5275	1592.6891	1110.6481	988.83887	1664.2445	1162.1863	957.51807	1700.3499	1183.8048	922.6803	1662.0438	1214.9548	939.75861	1659.408	1159.8951	999.0379	1668.4753	-1579.426	1058.8665	1670.168	-1518.6224	1024.9606	1708.0411	-1551.1021	1059.2371	1672.1656	-1585.4341	-147.04884	1161.2999	-186.63297	-232.22951	1160.7102	-187.86293	-185.29715	1198.3584	-188.53883	-184.00055	1159.4298	-219.21776	-185.48021	1163.6929	-139.93605																																														-1068.5022	210.11505	-1625.0667	-1073.5841	248.77068	-1624.109	-1321.3466	231.68896	1025.1093	-1319.8279	270.43509	1029.2843	848.08667	183.69453	1196.2581	851.88544	222.45741	1194.2557	1088.7173	202.72792	-1428.2649	1082.6315	241.02176	-1432.4534	-1171.9023	1686.9874	-1581.8083	-1170.5973	1648.0094	-1581.6814	-1270.8436	1698.8851	1098.1005	-1271.3149	1659.9097	1099.4053	953.17584	1705.3552	1186.8019	973.0022	1733.5137	1168.4987	1026.4896	1669.252	-1551.5269	1028.0259	1630.2845	-1551.9537	-185.05833	1161.0367	-187.18179	-184.80899	1122.0632	-185.76471
452	3.7583333	-1038.1801	214.45894	-1644.26	-1109.3619	204.17839	-1599.3176	-1063.6238	172.90651	-1625.959	-1054.2014	262.22278	-1634.9298	-1352.8896	234.9982	1003.6313	-1281.3666	227.17581	1052.4469	-1322.766	193.89255	1020.8911	-1284.587	287.9267	1052.788	813.89294	187.70049	1209.5286	892.07513	178.44583	1179.2823	844.28595	145.62941	1198.2753	860.69421	292.87134	1167.714	1115.7421	209.92439	-1401.7374	1056.1522	194.07047	-1460.2325	1095.0358	162.50323	-1423.875	1069.8285	238.83934	-1425.7875	-1204.5574	1685.9556	-1563.1786	-1129.1005	1688.3104	-1606.0466	-1173.1489	1724.4189	-1581.9258	-1134.0547	1580.9747	-1603.811	-1239.5916	1699.0906	1119.4548	-1309.344	1698.7823	1071.9192	-1270.3971	1736.2576	1096.8558	-1245.5774	1592.7384	1110.6608	988.83514	1664.2383	1162.1863	957.47681	1700.389	1183.759	922.04712	1662.2671	1214.8915	939.80664	1659.439	1159.8921	999.02661	1668.474	-1579.4235	1058.8673	1670.1732	-1518.6168	1024.9611	1708.0525	-1551.0999	1059.2362	1672.1703	-1585.4287	-147.05482	1161.2831	-186.62666	-232.24422	1160.7097	-187.86877	-185.28752	1198.3514	-188.53082	-184.12697	1159.1945	-218.97768	-185.49411	1163.6901	-139.93796																																														-1068.4724	210.08392	-1625.1342	-1073.5148	248.74706	-1624.2764	-1321.4917	231.56424	1025.0608	-1320.1815	270.3056	1029.3491	848.03174	183.65936	1196.3213	851.84955	222.4209	1194.3297	1088.6805	202.72462	-1428.3018	1082.6293	241.02106	-1432.517	-1171.8773	1686.9753	-1581.7444	-1170.5538	1647.9982	-1581.5558	-1271.0315	1698.9517	1098.0288	-1271.6943	1659.9764	1099.2544	952.87366	1705.6956	1186.9258	972.85992	1733.8522	1168.7943	1026.4882	1669.2537	-1551.5184	1028.022	1630.2861	-1551.9388	-185.05598	1161.0273	-187.18073	-184.81422	1122.0535	-185.77098
453	3.7666667	-1038.2048	214.51595	-1644.1663	-1109.3993	204.08189	-1599.2802	-1063.7474	173.08022	-1625.9764	-1054.1763	262.26013	-1634.9437	-1352.8823	234.97331	1003.6849	-1281.3993	227.10806	1052.4445	-1322.87	193.76753	1021.0175	-1284.5923	287.92896	1052.7151	813.86157	187.64903	1209.5065	892.12561	178.44164	1179.2471	844.29987	145.73468	1198.2223	860.72992	292.63107	1167.6239	1115.7035	209.63834	-1401.5707	1056.3201	194.1313	-1460.299	1095.0751	162.53584	-1423.8656	1069.8126	238.83116	-1425.7799	-1204.5469	1685.9458	-1563.1807	-1129.1199	1688.2758	-1606.0095	-1173.1511	1724.4413	-1581.9384	-1134.0574	1580.9805	-1603.8245	-1239.6243	1699.152	1119.4744	-1309.1091	1698.4004	1071.7836	-1270.4381	1736.3112	1096.8777	-1245.5884	1592.8066	1110.6783	988.81458	1664.2281	1162.2195	957.39368	1700.4193	1183.7416	922.57733	1662.1421	1215.0375	939.76099	1659.4183	1159.8966	999.04529	1668.4822	-1579.4237	1058.8506	1670.1671	-1518.6239	1024.9619	1708.0382	-1551.0972	1059.2472	1672.1644	-1585.4413	-147.05614	1161.2861	-186.64412	-232.24083	1160.7072	-187.86638	-185.34877	1198.46	-188.54016	-184.16418	1159.2941	-219.08867	-185.51831	1163.7332	-139.90553																																														-1068.5671	210.06612	-1625.0234	-1073.6052	248.7265	-1624.0276	-1321.4965	231.51994	1025.0935	-1320.0868	270.26926	1029.2773	848.0155	183.63095	1196.3014	851.81628	222.39555	1194.3367	1088.8359	202.62233	-1428.1416	1082.8713	240.94609	-1432.2296	-1171.8759	1686.955	-1581.7318	-1170.5499	1647.978	-1581.5171	-1270.8376	1698.8143	1098.0509	-1271.2531	1659.8356	1099.2706	953.04272	1705.4307	1186.7217	972.83478	1733.5533	1168.3263	1026.4885	1669.2552	-1551.5239	1028.0226	1630.2877	-1551.9529	-185.11369	1161.0273	-187.19017	-184.86897	1122.0535	-185.78462
454	3.775	-1038.1897	214.51079	-1644.1726	-1109.3488	204.12839	-1599.3101	-1063.6208	172.90674	-1625.9614	-1054.171	262.21155	-1634.9092	-1352.7992	235.20567	1003.5124	-1281.3356	227.19846	1052.4038	-1322.8823	193.78845	1020.9575	-1284.6217	287.90225	1052.787	813.93787	187.71826	1209.413	892.0722	178.49255	1179.2256	844.36395	145.62875	1198.2944	860.80292	292.67706	1167.7737	1115.6959	209.62978	-1401.5935	1056.2286	194.10316	-1460.2645	1095.0356	162.44632	-1423.887	1069.7659	238.80209	-1425.7903	-1204.5458	1685.9586	-1563.1777	-1129.1354	1688.2965	-1606.0002	-1173.1437	1724.4141	-1581.9282	-1134.0529	1580.9917	-1603.8428	-1239.5879	1699.0997	1119.4541	-1309.1241	1698.3964	1071.7799	-1270.4283	1736.2992	1096.8732	-1245.5909	1592.7473	1110.6643	988.80103	1664.2156	1162.2073	957.44189	1700.3849	1183.8024	922.10663	1662.1683	1214.8424	939.76367	1659.4283	1159.9213	999.0473	1668.4712	-1579.4186	1058.7365	1669.9963	-1518.6321	1024.957	1708.0446	-1551.1024	1059.2445	1672.1604	-1585.4403	-147.05478	1161.2867	-186.64709	-232.23682	1160.71	-187.86009	-185.36761	1198.4625	-188.54453	-184.16916	1159.3285	-219.00597	-185.47299	1163.6865	-139.93364																																														-1068.4855	210.09047	-1625.0724	-1073.5435	248.75006	-1624.1481	-1321.3982	231.6873	1024.9952	-1319.8807	270.43848	1029.1237	848.06018	183.68925	1196.2296	851.82446	222.45016	1194.1268	1088.7683	202.59911	-1428.1605	1082.7867	240.92123	-1432.2393	-1171.8713	1686.9716	-1581.7322	-1170.547	1647.9945	-1581.528	-1270.8401	1698.7836	1098.0275	-1271.2681	1659.8043	1099.2268	952.93762	1705.5798	1186.9042	972.93433	1733.7363	1168.7837	1026.4095	1669.1704	-1551.5531	1027.8655	1630.2002	-1552.0051	-185.13348	1161.0288	-187.18933	-184.88974	1122.0552	-185.77838
